<?xml version="1.0" standalone="no"?>
<!DOCTYPE svg PUBLIC "-//W3C//DTD SVG 20010904//EN"
 "http://www.w3.org/TR/2001/REC-SVG-20010904/DTD/svg10.dtd">
<svg version="1.0" xmlns="http://www.w3.org/2000/svg"
 width="1024.000000pt" height="1024.000000pt" viewBox="0 0 1024.000000 1024.000000"
 preserveAspectRatio="xMidYMid meet">
<metadata>
Created by potrace 1.14, written by Peter Selinger 2001-2017
</metadata>
<g transform="translate(0.000000,1024.000000) scale(0.100000,-0.100000)"
fill="#000000" stroke="none">
<path d="M1759 10236 c-2 -2 -31 -7 -64 -10 -215 -20 -512 -118 -720 -238
-195 -113 -396 -283 -530 -449 -33 -41 -62 -76 -66 -79 -3 -3 -31 -44 -62 -93
-162 -246 -272 -546 -304 -827 -11 -87 -10 -6767 0 -6850 42 -345 193 -701
411 -970 79 -98 202 -220 296 -295 278 -222 627 -370 970 -412 85 -10 6775
-10 6860 0 794 97 1447 676 1634 1450 58 236 55 22 54 3652 0 1958 -3 3372 -9
3418 -11 92 -46 267 -64 317 -7 19 -23 67 -35 105 -33 103 -139 317 -205 415
-197 293 -446 515 -753 669 -129 65 -285 122 -397 147 -11 2 -31 6 -45 9 -14
3 -52 10 -85 16 -33 6 -73 13 -90 17 -32 7 -6789 15 -6796 8z"/>
</g>
</svg>
