<?xml version="1.0" encoding="utf-8"?>
<!-- Generator: Adobe Illustrator 21.1.0, SVG Export Plug-In . SVG Version: 6.00 Build 0)  -->
<svg version="1.1" id="Слой_1" xmlns="http://www.w3.org/2000/svg" xmlns:xlink="http://www.w3.org/1999/xlink" x="0px" y="0px"
	 viewBox="0 0 521.2 81.7" style="enable-background:new 0 0 521.2 81.7;" xml:space="preserve">
<style type="text/css">
	.st0{fill:#171A1E;}
	.st1{fill:#227F22;}
	.st2{fill:#C17938;}
	.st3{fill:#6B788E;}
	.st4{fill:#57AC57;}
	.st5{fill:#A4AEC4;}
	.st6{fill:#F4AC4D;}
	.st7{fill:#FFFFFF;}
</style>
<g>
	<path class="st0" d="M102.6,55.2c0.6-0.9,1.5-1.4,2.5-1.4c0.7,0,1.4,0.2,2.1,0.7c2.7,1.8,5.9,3.1,8.4,3.1c2.8,0,4.4-1.4,4.4-3.6
		c0-7-19.4-6.1-19.4-21.2c0-7.2,5.7-13.4,15-13.4c4.8,0,8.2,0.9,11.5,3.1c0.9,0.5,1.3,1.6,1.3,2.6c0,0.5-0.1,1.1-0.4,1.6l-1.7,2.9
		c-0.7,1.1-1.6,1.6-2.7,1.6c-0.5,0-1.2-0.2-1.8-0.5c-1.6-0.8-3.3-1.3-5.3-1.3c-2.9,0-4.7,1.3-4.7,3.5c0,7.7,19.4,5.9,19.4,21
		c0,8.1-7,13.7-16,13.7c-4.7,0-9.6-1.8-14.1-5.3c-0.7-0.5-1-1.5-1-2.3c0-0.7,0.1-1.4,0.5-1.9L102.6,55.2z"/>
	<path class="st0" d="M168.5,63.7c0,1.7-1.4,3.1-3.1,3.1h-22.2c-1.7,0-3.1-1.4-3.1-3.1V23.3c0-1.7,1.4-3.1,3.1-3.1h21.5
		c1.7,0,3.1,1.4,3.1,3.1v3.9c0,1.7-1.4,3.1-3.1,3.1h-13.9v8.2h11.9c1.7,0,3.1,1.4,3.1,3.1v3.9c0,1.7-1.4,3.1-3.1,3.1h-11.9v8.5h14.6
		c1.7,0,3.1,1.4,3.1,3.1V63.7z"/>
	<path class="st0" d="M193.2,20c18.6,0,26.2,10.7,26.2,23.1c0,13-8.9,23.8-26.7,23.8c-2,0-6.5-0.1-11.1-0.1c-1.7,0-3.1-1.4-3.1-3.1
		V23.3c0-1.7,1.4-3.1,3.1-3.1C185.4,20.1,190.8,20,193.2,20z M189.1,56.8c1.4,0.1,2.3,0.1,3.9,0.1c9.2,0,15-5,15-13.8
		c0-8.6-6.3-13.1-15-13.1c-1.1,0-2.6,0-3.9,0.2V56.8z"/>
	<path class="st0" d="M256.3,63.7c0,1.7-1.4,3.1-3.1,3.1H231c-1.7,0-3.1-1.4-3.1-3.1V23.3c0-1.7,1.4-3.1,3.1-3.1h21.5
		c1.7,0,3.1,1.4,3.1,3.1v3.9c0,1.7-1.4,3.1-3.1,3.1h-13.9v8.2h11.9c1.7,0,3.1,1.4,3.1,3.1v3.9c0,1.7-1.4,3.1-3.1,3.1h-11.9v8.5h14.6
		c1.7,0,3.1,1.4,3.1,3.1V63.7z"/>
	<path class="st0" d="M287.3,29.4c-7.2,0-13,4.9-13,14.1c0,8.3,5.7,14.1,14.1,14.1c2.4,0,4.9-0.6,7.3-1.8c0.7-0.3,1.3-0.5,1.9-0.5
		c1.1,0,2.1,0.5,2.7,1.6l1.6,2.5c0.3,0.5,0.5,1.1,0.5,1.7c0,1-0.5,2.1-1.5,2.8c-4.1,2.8-8.2,3.7-13.5,3.7
		c-14.4,0-24.4-9.6-24.4-24.1c0-13.4,8.3-24.1,24.4-24.1c4.7,0,7.9,0.9,11.3,2.6c1,0.5,1.6,1.5,1.6,2.6c0,0.5-0.1,1-0.3,1.5
		l-1.5,3.1c-0.5,1.2-1.7,1.8-2.9,1.8c-0.5,0-1.1-0.1-1.6-0.3C292.1,29.9,290,29.4,287.3,29.4z"/>
	<path class="st0" d="M329.2,19.4c14.2,0,24.8,9.3,24.8,24.1c0,14.1-10.6,24.1-24.8,24.1c-14.2,0-24.8-9.3-24.8-24.1
		C304.4,30,314.3,19.4,329.2,19.4z M329.2,57.6c8.9,0,13.4-6.3,13.4-14.1c0-8.5-5.9-14.1-13.4-14.1c-7.7,0-13.4,5.6-13.4,14.1
		C315.7,51.5,321.7,57.6,329.2,57.6z"/>
	<path class="st0" d="M377.2,50.5h-3.9v13.2c0,1.7-1.4,3.1-3.1,3.1h-4.5c-1.7,0-3.1-1.4-3.1-3.1V23.3c0-1.7,1.4-3.1,3.1-3.1
		c4.5-0.1,11.8-0.1,12.8-0.1c12.7,0,17.2,6.3,17.2,14.9c0,8.7-5.3,12.2-7.9,13.4l10.3,13.8c0.4,0.5,0.6,1.1,0.6,1.7
		c0,1.5-1.2,2.9-2.9,2.9h-4.9c-1.4,0-2.9-0.7-3.7-1.9L377.2,50.5z M377.1,40.5c4.1,0,7.3-1.5,7.3-5.4c0-2.6-1.3-5.1-6.5-5.1
		c-1.6,0-2.5,0.1-4.7,0.1v10.3H377.1z"/>
	<path class="st0" d="M421.8,20c18.6,0,26.2,10.7,26.2,23.1c0,13-8.9,23.8-26.7,23.8c-2,0-6.5-0.1-11.1-0.1c-1.7,0-3.1-1.4-3.1-3.1
		V23.3c0-1.7,1.4-3.1,3.1-3.1C414.1,20.1,419.5,20,421.8,20z M417.8,56.8c1.4,0.1,2.3,0.1,3.9,0.1c9.2,0,15-5,15-13.8
		c0-8.6-6.3-13.1-15-13.1c-1.1,0-2.6,0-3.9,0.2V56.8z"/>
	<path class="st0" d="M486.3,63.7c0,1.7-1.4,3.1-3.1,3.1h-23.5c-1.7,0-3.1-1.4-3.1-3.1V23.3c0-1.7,1.4-3.1,3.1-3.1h4.5
		c1.7,0,3.1,1.4,3.1,3.1v33.6h15.9c1.7,0,3.1,1.4,3.1,3.1V63.7z"/>
	<path class="st0" d="M521.2,63.7c0,1.7-1.4,3.1-3.1,3.1H496c-1.7,0-3.1-1.4-3.1-3.1V23.3c0-1.7,1.4-3.1,3.1-3.1h21.5
		c1.7,0,3.1,1.4,3.1,3.1v3.9c0,1.7-1.4,3.1-3.1,3.1h-13.9v8.2h11.9c1.7,0,3.1,1.4,3.1,3.1v3.9c0,1.7-1.4,3.1-3.1,3.1h-11.9v8.5h14.6
		c1.7,0,3.1,1.4,3.1,3.1V63.7z"/>
</g>
<g>
	<path class="st1" d="M56.9,62.8l-0.1,18.9h4.9c7.9,0,14.3-6.4,14.3-14.3v-4.6L56.9,62.8z"/>
	<polygon class="st2" points="38,62.8 38,81.7 56.9,81.7 56.9,62.8 	"/>
	<polygon class="st1" points="19.2,62.9 19.2,81.7 38,81.7 38,62.8 	"/>
	<path class="st3" d="M-0.1,62.9v4.5c0,7.9,6.5,14.3,14.3,14.3h4.9l0.1-18.8L-0.1,62.9z"/>
	<polygon class="st4" points="38,38.5 38,57.3 56.9,57.3 57,38.3 	"/>
	<polygon class="st5" points="56.9,57.3 76.1,57.3 76.1,38.1 57,38.3 	"/>
	<path class="st4" d="M56.9,57.3l-0.1,18.9h4.9c7.9,0,14.3-6.4,14.3-14.3v-4.6L56.9,57.3z"/>
	<polygon class="st6" points="38,57.3 38,76.2 56.9,76.2 56.9,57.3 	"/>
	<polygon class="st6" points="38,20.5 38,5.8 38,0 19.5,0 19.4,20.5 	"/>
	<path class="st4" d="M19.5,0h-5.3C6.4,0-0.1,6.5-0.1,14.3v3.8V20v0.5l19.5,0L19.5,0z"/>
	<polygon class="st5" points="38,20.5 19.4,20.5 19.3,38.7 38,38.5 	"/>
	<polygon class="st6" points="19.4,20.5 -0.1,20.5 -0.1,23.8 -0.1,38.8 19.3,38.7 	"/>
	<polygon class="st6" points="57,38.3 57.1,20.5 38,20.5 38,38.5 	"/>
	<polygon class="st4" points="57,38.3 76.1,38.1 76.1,23.8 76.1,20.4 57.1,20.5 	"/>
	<path class="st6" d="M76.1,20.4V20v-1.9v-3.8C76.1,6.5,69.7,0,61.8,0h-4.6l-0.1,20.4L76.1,20.4z"/>
	<polygon class="st5" points="38,20.5 57.1,20.5 57.2,0 38,0 38,5.8 	"/>
	<polygon class="st5" points="57,38.3 57,38.3 38,38.5 	"/>
	<polygon class="st5" points="57,38.3 76.1,38.1 76.1,38.1 57,38.3 	"/>
	<polygon class="st4" points="19.2,57.4 19.2,76.2 38,76.2 38,57.3 	"/>
	<polygon class="st6" points="19.3,38.7 19.2,57.4 38,57.3 38,38.5 	"/>
	<polygon class="st4" points="19.3,38.7 -0.1,38.8 -0.1,57.4 19.2,57.4 	"/>
	<path class="st5" d="M-0.1,57.4v4.5c0,7.9,6.5,14.3,14.3,14.3h4.9l0.1-18.8L-0.1,57.4z"/>
	<g>
		<path class="st7" d="M16.1,30.9c-0.5,0.4-1.1,0.6-1.7,0.6c-0.9,0-1.8-0.4-2.4-1.2l-1.9-2.7c-0.4-0.5-0.6-1.1-0.6-1.7
			c0-0.9,0.4-1.8,1.2-2.4l8.2-6c1-0.7,1.9-1.2,3.2-1.2h2.4c1.6,0,2.9,1.3,2.9,2.9V57c0,1.6-1.3,2.9-2.9,2.9H21
			c-1.6,0-2.9-1.3-2.9-2.9V29.5L16.1,30.9z"/>
		<path class="st7" d="M54.4,32.7c6.2,0,12,5.3,12,13.3c0,9.7-7.6,14.7-14.7,14.7c-9.7,0-16.1-7.3-16.1-16.2
			c0-14.9,9-24.7,19.8-28.6c0.4-0.2,0.9-0.2,1.3-0.2c1.2,0,2.1,0.7,2.7,1.9l0.9,1.9c0.2,0.4,0.2,0.8,0.2,1.2c0,1.2-0.7,2.2-1.9,2.7
			c-5.4,2.4-9.7,6.6-11.9,11.8C48.6,33.3,50.8,32.7,54.4,32.7z M51.8,51.3c3.3,0,4.7-2.4,4.7-4.6c0-3-1.8-5.2-5.3-5.2
			c-2.7,0-4.4,1.4-5.6,3.1C45.6,48.6,47.8,51.3,51.8,51.3z"/>
	</g>
</g>
</svg>
